<svg xmlns="http://www.w3.org/2000/svg" xmlns:xlink="http://www.w3.org/1999/xlink" width="382.62" height="140" viewBox="0 0 382.62 140"><defs><clipPath id="b"><rect width="382.62" height="140"/></clipPath></defs><g id="a" clip-path="url(#b)"><g transform="translate(1801.476 -553.282)"><path d="M-1730.738,671.73l-43.558-37.843V665.5h-26.9V577.06l43.478,37.815V583.41c.814-.071,1.419-.168,2.024-.169,7.67-.011,15.339.041,23.008-.044,1.7-.018,2.145.548,2.143,2.176q-.059,42.113-.033,84.225C-1730.576,670.135-1730.656,670.672-1730.738,671.73Z" transform="translate(0 -1.026)" fill="#fff"/><path d="M-1130.723,664.609l49.629-89.327,49.583,89.135c-.878.084-1.457.188-2.037.189-8.164.011-16.328-.028-24.492.041a2.521,2.521,0,0,1-2.733-1.694,59.092,59.092,0,0,0-3.035-6.021,2.639,2.639,0,0,0-1.88-1.17q-15.413-.109-30.826,0a2.651,2.651,0,0,0-1.854,1.21c-1.2,2.06-2.166,4.26-3.346,6.335a2.5,2.5,0,0,1-1.642,1.244C-1112.286,664.632-1121.215,664.609-1130.723,664.609Zm39.71-23h19.73l-9.764-20.414Z" transform="translate(-387.063 0)" fill="#fff"/><path d="M-1243.083,652.379h25.474a13.834,13.834,0,0,1,.211,1.614c.013,6.054-.015,12.107.029,18.161.009,1.282-.261,1.9-1.736,1.895q-25.024-.068-50.048-.041a7.9,7.9,0,0,1-.955-.131V591.73c.7-.037,1.443-.109,2.182-.109,16.049-.006,32.1.02,48.147-.04,1.77-.007,2.484.35,2.437,2.305-.131,5.558-.115,11.122-.007,16.681.036,1.818-.613,2.234-2.309,2.215-6.968-.081-13.937-.034-20.906-.034h-2.48v11.222h25.656v4.318c0,3.1-.09,6.2.035,9.29.069,1.734-.45,2.3-2.234,2.274-7.038-.1-14.078-.039-21.116-.039h-2.38Z" transform="translate(-306.596 -9.409)" fill="#fff"/><path d="M-1503.625,591.6h11.888c4.855,0,9.712.082,14.564-.043a3.255,3.255,0,0,1,3.526,2.145c5.232,10.739,10.6,21.412,15.926,32.105.339.681.719,1.342,1.244,2.315.481-.854.864-1.472,1.188-2.119,5.411-10.81,10.844-21.61,16.186-32.453a3.038,3.038,0,0,1,3.214-1.992c8.02.092,16.042.041,24.063.041h2.651l-47.252,88.625Z" transform="translate(-171.787 -9.395)" fill="#fff"/><path d="M-1576.947,673.873V591.749c.79-.038,1.536-.1,2.281-.105,7.526,0,15.052.037,22.577-.023,1.484-.012,2.135.281,2.132,1.949q-.066,39.351-.038,78.7c0,.479-.089.959-.152,1.6Z" transform="translate(-129.458 -9.432)" fill="#fff"/></g></g></svg>